# xmcd
#
# Track frame offsets: 
#        182
#        24217
#        40517
#        67945
#        88150
#        112645
#        140590
#        160177
#
# Disc length: 2455 seconds
#
# Revision: 26
# Processed by: cddbd v1.5.2PL0 Copyright (c) Steve Scherf et al.
# Submitted via: ExactAudioCopyFreeDBPlugin 1.0
#
DISCID=54099508
DTITLE=AC-DC - Let There Be Rock (36-151-2)
DYEAR=1977
DGENRE=Rock
TTITLE0=Go Down
TTITLE1=Dog Eat Dog
TTITLE2=Let There Be Rock
TTITLE3=Bad Boy Boogie
TTITLE4=Problem Child
TTITLE5=Overdose
TTITLE6=Hell Ain't A Bad Place To Be
TTITLE7=Whole Lotta Rosie
EXTD=
EXTT0=
EXTT1=
EXTT2=
EXTT3=
EXTT4=
EXTT5=
EXTT6=
EXTT7=
PLAYORDER=
